<?xml version="1.0" standalone="no"?>
<!DOCTYPE svg PUBLIC "-//W3C//DTD SVG 20010904//EN"
 "http://www.w3.org/TR/2001/REC-SVG-20010904/DTD/svg10.dtd">
<svg version="1.0" xmlns="http://www.w3.org/2000/svg"
 width="100" height="100" viewBox="0 0 671.000000 590.000000"
 preserveAspectRatio="xMidYMid meet">

<g transform="translate(0.000000,590.000000) scale(0.100000,-0.100000)"
fill="#077712" stroke="none">
<path d="M2670 5216 c-177 -28 -306 -69 -454 -142 -426 -212 -713 -599 -813
-1099 -14 -72 -18 -137 -17 -320 0 -200 3 -244 23 -335 75 -349 249 -650 503
-867 213 -182 457 -290 753 -334 255 -38 593 -8 821 72 133 47 358 165 379
199 3 5 10 10 16 10 5 0 9 -260 9 -675 l0 -675 220 0 220 0 2 978 3 977 438 3
437 2 -2 188 -3 187 -1102 3 -1103 2 0 -190 0 -190 425 0 c288 0 425 -3 425
-10 0 -40 -106 -197 -189 -281 -112 -111 -214 -172 -369 -220 -425 -131 -885
-34 -1165 246 -158 158 -263 357 -319 606 -20 90 -23 131 -23 304 0 217 13
317 62 463 132 400 419 660 825 749 109 24 368 23 478 -1 100 -22 223 -64 290
-99 163 -87 329 -258 407 -421 l17 -36 234 0 233 0 -7 23 c-12 40 -67 151
-107 217 -201 334 -534 562 -942 647 -150 30 -467 40 -605 19z"/>
</g>
</svg>
